<?xml version="1.0" encoding="UTF-8" standalone="no"?>
<!DOCTYPE svg PUBLIC "-//W3C//DTD SVG 1.1//EN" "http://www.w3.org/Graphics/SVG/1.1/DTD/svg11.dtd">
<svg width="100%" height="100%" viewBox="0 0 108 108" version="1.1" xmlns="http://www.w3.org/2000/svg" xmlns:xlink="http://www.w3.org/1999/xlink" xml:space="preserve" xmlns:serif="http://www.serif.com/" style="fill-rule:evenodd;clip-rule:evenodd;stroke-linejoin:round;stroke-miterlimit:2;">
    <g transform="matrix(0.742621,0,0,0.742621,17.6116,21.3247)">
        <path id="path1" d="M61.426,82.831C57.526,84.557 53.349,85.42 49,85.42C31.88,85.42 17.935,71.475 17.935,54.355C17.935,37.235 31.88,23.29 49,23.29C66.12,23.29 80.065,37.235 80.065,54.355C80.065,56.253 81.618,57.807 83.517,57.807C85.415,57.807 86.968,56.253 86.968,54.355C86.968,46.002 84.241,38.305 79.651,32.022L83.517,28.157L84.518,29.158C85.208,29.848 86.071,30.159 86.968,30.159C87.866,30.159 88.729,29.813 89.419,29.158C90.765,27.811 90.765,25.637 89.419,24.291L82.516,17.388C81.169,16.041 78.995,16.041 77.649,17.388C76.303,18.734 76.303,20.908 77.649,22.254L78.65,23.255L75.095,26.811C70.815,22.738 65.603,19.666 59.804,17.94C61.667,15.593 62.807,12.659 62.807,9.449C62.807,1.821 56.628,-4.358 49,-4.358C41.372,-4.358 35.193,1.821 35.193,9.449C35.193,12.659 36.332,15.593 38.196,17.94C32.398,19.666 27.186,22.738 22.905,26.811L19.35,23.255L20.351,22.254C21.697,20.908 21.697,18.734 20.351,17.388C19.005,16.042 16.83,16.041 15.484,17.388L8.581,24.291C7.235,25.637 7.235,27.812 8.581,29.158C9.271,29.848 10.134,30.159 11.032,30.159C11.929,30.159 12.792,29.813 13.482,29.158L14.483,28.157L18.349,32.022C13.759,38.304 11.032,46.001 11.032,54.355C11.032,75.307 28.048,92.323 49,92.323C54.315,92.323 59.424,91.253 64.187,89.113C65.913,88.354 66.707,86.317 65.948,84.557C65.188,82.796 63.152,82.037 61.391,82.796L61.426,82.831ZM49,2.58C52.797,2.58 55.903,5.687 55.903,9.484C55.903,12.038 54.488,14.247 52.452,15.421L52.452,12.935C52.452,11.037 50.899,9.484 49,9.484C47.102,9.484 45.548,11.037 45.548,12.935L45.548,15.421C43.512,14.212 42.097,12.038 42.097,9.484C42.097,5.687 45.203,2.58 49,2.58Z" style="fill:#006680;fill-rule:nonzero;"/>
        <path id="path2" d="M86.968,75.065L79.616,75.065L82.93,70.06C84,68.472 83.551,66.332 81.963,65.262C80.376,64.192 78.236,64.641 77.166,66.229L70.262,76.584C69.572,77.654 69.503,79 70.09,80.139C70.676,81.278 71.85,81.968 73.127,81.968L80.479,81.968L77.165,86.973C76.095,88.561 76.544,90.701 78.132,91.771C78.719,92.151 79.375,92.358 80.03,92.358C81.135,92.358 82.239,91.805 82.895,90.805L89.799,80.45C90.489,79.38 90.558,78.033 89.971,76.894C89.384,75.755 88.211,75.065 86.934,75.065L86.968,75.065Z" style="fill:#08a;fill-rule:nonzero;"/>
        <path id="path3" d="M49,61.258C52.797,61.258 55.903,58.152 55.903,54.355C55.903,50.558 52.797,47.452 49,47.452C48.379,47.452 47.792,47.555 47.24,47.693L37.644,38.098C36.298,36.752 34.123,36.752 32.777,38.098C31.431,39.444 31.431,41.619 32.777,42.965L42.373,52.56C42.235,53.112 42.131,53.699 42.131,54.321C42.131,58.117 45.238,61.224 49.035,61.224L49,61.258Z" style="fill:#08a;fill-rule:nonzero;"/>
        <path id="path4" d="M28.29,50.903C26.392,50.903 24.839,52.457 24.839,54.355C24.839,67.678 35.677,78.517 49,78.517C62.323,78.517 73.162,67.678 73.162,54.355C73.162,41.032 62.323,30.194 49,30.194C47.102,30.194 45.548,31.747 45.548,33.645C45.548,35.544 47.102,37.097 49,37.097C58.527,37.097 66.258,44.829 66.258,54.355C66.258,63.882 58.527,71.613 49,71.613C39.474,71.613 31.742,63.882 31.742,54.355C31.742,52.457 30.189,50.903 28.29,50.903Z" style="fill:#08a;fill-rule:nonzero;"/>
    </g>
</svg>
